<svg id="svg" xmlns="http://www.w3.org/2000/svg" width="600px" height="600px"><path stroke="#ff0000" fill="transparent" d="M 0,0 L 600,0 L 600,600 L 0,600 L 0,0"></path><path stroke="#ff0000" fill="transparent" d="M 60,0 S 61.40,25.91 57.20,25.91 S 49.11,15.44 49.11,28.64 S 53.00,34.72 57.20,34.72 S 61.31,54.86 60.00,60.00 S 60.67,85.26 56.47,85.26 S 49.13,74.19 49.13,87.39 S 52.27,94.81 56.47,94.81 S 62.20,116.47 60.00,120.00 S 62.65,145.14 58.45,145.14 S 48.79,134.16 48.79,147.36 S 54.25,154.47 58.45,154.47 S 61.79,175.44 60.00,180.00 S 59.14,205.22 63.34,205.22 S 74.27,195.76 74.27,208.96 S 67.54,214.93 63.34,214.93 S 61.51,237.00 60.00,240.00 S 61.24,265.14 57.04,265.14 S 46.48,258.88 46.48,272.08 S 52.84,274.30 57.04,274.30 S 61.93,295.01 60.00,300.00 S 59.72,325.94 55.52,325.94 S 48.22,319.12 48.22,332.32 S 51.32,334.86 55.52,334.86 S 61.49,354.95 60.00,360.00 S 57.58,385.90 61.78,385.90 S 71.17,379.58 71.17,392.78 S 65.98,393.98 61.78,393.98 S 61.48,416.62 60.00,420.00 S 61.57,445.90 57.37,445.90 S 47.17,437.53 47.17,450.73 S 53.17,454.63 57.37,454.63 S 61.82,474.37 60.00,480.00 S 62.63,505.42 58.43,505.42 S 49.46,498.28 49.46,511.48 S 54.23,514.91 58.43,514.91 S 62.17,534.23 60.00,540.00 S 58.85,565.30 63.05,565.30 S 71.70,558.96 71.70,572.16 S 67.25,574.35 63.05,574.35 S 62.08,595.06 60.00,600.00 "></path><path stroke="#ff0000" fill="transparent" d="M 120,0 S 119.76,25.76 115.56,25.76 S 108.95,14.12 108.95,27.32 S 111.36,35.07 115.56,35.07 S 121.27,56.68 120.00,60.00 S 120.33,85.76 116.13,85.76 S 107.67,78.98 107.67,92.18 S 111.93,94.61 116.13,94.61 S 121.63,115.02 120.00,120.00 S 119.50,145.09 123.70,145.09 S 133.02,134.99 133.02,148.19 S 127.90,154.92 123.70,154.92 S 121.90,174.43 120.00,180.00 S 118.21,205.60 122.41,205.60 S 129.96,194.40 129.96,207.60 S 126.61,214.95 122.41,214.95 S 121.96,235.27 120.00,240.00 S 119.87,265.68 115.67,265.68 S 106.28,258.28 106.28,271.48 S 111.47,274.66 115.67,274.66 S 121.32,295.42 120.00,300.00 S 117.87,324.95 122.07,324.95 S 132.39,318.98 132.39,332.18 S 126.27,335.06 122.07,335.06 S 121.50,354.53 120.00,360.00 S 119.14,386.07 123.34,386.07 S 134.03,375.48 134.03,388.68 S 127.54,394.87 123.34,394.87 S 122.20,415.07 120.00,420.00 S 119.79,445.36 115.59,445.36 S 105.92,434.75 105.92,447.95 S 111.39,454.51 115.59,454.51 S 121.94,474.92 120.00,480.00 S 118.74,505.67 122.94,505.67 S 134.51,497.82 134.51,511.02 S 127.14,515.04 122.94,515.04 S 121.52,536.35 120.00,540.00 S 120.22,565.95 116.02,565.95 S 109.33,553.98 109.33,567.18 S 111.82,573.95 116.02,573.95 S 121.28,595.32 120.00,600.00 "></path><path stroke="#ff0000" fill="transparent" d="M 180,0 S 182.25,25.54 178.05,25.54 S 168.71,19.73 168.71,32.93 S 173.85,34.00 178.05,34.00 S 182.28,54.23 180.00,60.00 S 177.53,85.20 181.73,85.20 S 194.01,76.35 194.01,89.55 S 185.93,94.92 181.73,94.92 S 181.38,116.93 180.00,120.00 S 182.51,145.23 178.31,145.23 S 165.11,136.02 165.11,149.22 S 174.11,154.16 178.31,154.16 S 181.95,176.93 180.00,180.00 S 180.37,205.80 176.17,205.80 S 167.51,196.04 167.51,209.24 S 171.97,214.00 176.17,214.00 S 182.22,235.00 180.00,240.00 S 177.76,265.02 181.96,265.02 S 193.94,258.99 193.94,272.19 S 186.16,274.33 181.96,274.33 S 181.39,294.32 180.00,300.00 S 181.73,325.80 177.53,325.80 S 168.37,319.00 168.37,332.20 S 173.33,334.36 177.53,334.36 S 182.30,355.48 180.00,360.00 S 178.81,385.71 183.01,385.71 S 192.48,377.28 192.48,390.48 S 187.21,394.61 183.01,394.61 S 181.27,414.33 180.00,420.00 S 177.85,444.99 182.05,444.99 S 193.67,436.94 193.67,450.14 S 186.25,454.58 182.05,454.58 S 182.22,475.44 180.00,480.00 S 181.67,505.35 177.47,505.35 S 169.41,493.96 169.41,507.16 S 173.27,514.14 177.47,514.14 S 182.02,534.50 180.00,540.00 S 179.23,565.21 183.43,565.21 S 194.80,557.00 194.80,570.20 S 187.63,574.37 183.43,574.37 S 181.46,595.20 180.00,600.00 "></path><path stroke="#ff0000" fill="transparent" d="M 240,0 S 238.80,25.31 243.00,25.31 S 252.76,14.98 252.76,28.18 S 247.20,34.85 243.00,34.85 S 242.29,56.55 240.00,60.00 S 238.05,86.05 242.25,86.05 S 250.39,77.71 250.39,90.91 S 246.45,94.20 242.25,94.20 S 241.37,114.71 240.00,120.00 S 241.36,145.55 237.16,145.55 S 229.36,137.46 229.36,150.66 S 232.96,154.99 237.16,154.99 S 241.21,175.47 240.00,180.00 S 242.58,205.48 238.38,205.48 S 230.10,197.32 230.10,210.52 S 234.18,214.34 238.38,214.34 S 241.88,235.37 240.00,240.00 S 239.24,266.07 243.44,266.07 S 254.22,253.92 254.22,267.12 S 247.64,274.96 243.44,274.96 S 241.85,294.28 240.00,300.00 S 239.38,326.02 243.58,326.02 S 251.11,317.95 251.11,331.15 S 247.78,334.37 243.58,334.37 S 242.15,355.11 240.00,360.00 S 242.56,385.22 238.36,385.22 S 225.26,379.66 225.26,392.86 S 234.16,394.75 238.36,394.75 S 241.31,415.98 240.00,420.00 S 242.09,445.64 237.89,445.64 S 230.12,434.18 230.12,447.38 S 233.69,454.84 237.89,454.84 S 241.23,475.09 240.00,480.00 S 242.09,505.68 237.89,505.68 S 226.46,497.78 226.46,510.98 S 233.69,514.82 237.89,514.82 S 241.97,534.49 240.00,540.00 S 238.50,565.24 242.70,565.24 S 249.18,556.87 249.18,570.07 S 246.90,575.01 242.70,575.01 S 242.24,594.38 240.00,600.00 "></path><path stroke="#ff0000" fill="transparent" d="M 300,0 S 302.68,25.96 298.48,25.96 S 289.78,17.71 289.78,30.91 S 294.28,33.99 298.48,33.99 S 302.26,55.34 300.00,60.00 S 301.93,85.56 297.73,85.56 S 286.32,79.56 286.32,92.76 S 293.53,94.02 297.73,94.02 S 302.35,114.06 300.00,120.00 S 300.34,146.08 296.14,146.08 S 286.06,134.02 286.06,147.22 S 291.94,155.00 296.14,155.00 S 301.98,176.74 300.00,180.00 S 301.18,205.44 296.98,205.44 S 290.80,196.84 290.80,210.04 S 292.78,214.69 296.98,214.69 S 302.27,236.70 300.00,240.00 S 301.22,265.56 297.02,265.56 S 286.52,256.60 286.52,269.80 S 292.82,274.39 297.02,274.39 S 302.20,296.13 300.00,300.00 S 298.07,325.27 302.27,325.27 S 313.23,315.64 313.23,328.84 S 306.47,335.06 302.27,335.06 S 301.93,356.89 300.00,360.00 S 297.86,386.08 302.06,386.08 S 311.16,377.68 311.16,390.88 S 306.26,393.93 302.06,393.93 S 301.90,415.97 300.00,420.00 S 297.87,445.79 302.07,445.79 S 313.81,438.67 313.81,451.87 S 306.27,454.40 302.07,454.40 S 302.03,476.97 300.00,480.00 S 298.22,505.99 302.42,505.99 S 314.61,496.86 314.61,510.06 S 306.62,514.93 302.42,514.93 S 301.61,536.40 300.00,540.00 S 299.93,565.10 295.73,565.10 S 288.23,556.92 288.23,570.12 S 291.53,574.93 295.73,574.93 S 301.50,594.82 300.00,600.00 "></path><path stroke="#ff0000" fill="transparent" d="M 360,0 S 359.46,25.42 363.66,25.42 S 374.50,18.75 374.50,31.95 S 367.86,34.12 363.66,34.12 S 361.59,56.82 360.00,60.00 S 359.87,85.47 364.07,85.47 S 373.91,73.81 373.91,87.01 S 368.27,94.93 364.07,94.93 S 362.08,116.95 360.00,120.00 S 357.35,145.79 361.55,145.79 S 369.28,134.42 369.28,147.62 S 365.75,154.48 361.55,154.48 S 362.38,174.59 360.00,180.00 S 360.48,205.48 356.28,205.48 S 350.69,196.12 350.69,209.32 S 352.08,215.07 356.28,215.07 S 361.32,234.95 360.00,240.00 S 357.39,265.90 361.59,265.90 S 373.32,257.77 373.32,270.97 S 365.79,274.53 361.59,274.53 S 361.28,296.05 360.00,300.00 S 360.96,325.94 356.76,325.94 S 345.37,315.94 345.37,329.14 S 352.56,334.98 356.76,334.98 S 361.65,356.21 360.00,360.00 S 361.35,385.10 357.15,385.10 S 350.80,378.92 350.80,392.12 S 352.95,394.25 357.15,394.25 S 361.23,416.66 360.00,420.00 S 357.57,445.02 361.77,445.02 S 369.14,437.51 369.14,450.71 S 365.97,454.22 361.77,454.22 S 361.54,476.64 360.00,480.00 S 361.13,506.00 356.93,506.00 S 347.91,498.29 347.91,511.49 S 352.73,515.03 356.93,515.03 S 361.71,536.15 360.00,540.00 S 360.08,565.66 364.28,565.66 S 370.42,559.34 370.42,572.54 S 368.48,574.19 364.28,574.19 S 361.61,595.54 360.00,600.00 "></path><path stroke="#ff0000" fill="transparent" d="M 420,0 S 417.31,25.79 421.51,25.79 S 432.49,19.23 432.49,32.43 S 425.71,34.74 421.51,34.74 S 421.61,55.87 420.00,60.00 S 421.92,85.53 417.72,85.53 S 405.08,78.49 405.08,91.69 S 413.52,94.14 417.72,94.14 S 421.46,114.01 420.00,120.00 S 420.93,145.50 416.73,145.50 S 408.27,135.08 408.27,148.28 S 412.53,154.98 416.73,154.98 S 421.82,174.88 420.00,180.00 S 420.18,205.99 415.98,205.99 S 410.90,199.18 410.90,212.38 S 411.78,214.75 415.98,214.75 S 421.87,236.89 420.00,240.00 S 418.91,266.08 423.11,266.08 S 433.14,254.21 433.14,267.41 S 427.31,274.16 423.11,274.16 S 422.17,294.15 420.00,300.00 S 421.93,325.40 417.73,325.40 S 409.94,316.63 409.94,329.83 S 413.53,335.10 417.73,335.10 S 422.39,356.53 420.00,360.00 S 419.20,385.10 423.40,385.10 S 433.84,376.79 433.84,389.99 S 427.60,394.69 423.40,394.69 S 421.94,415.66 420.00,420.00 S 421.36,446.05 417.16,446.05 S 410.40,433.94 410.40,447.14 S 412.96,454.23 417.16,454.23 S 422.40,474.70 420.00,480.00 S 418.80,505.77 423.00,505.77 S 432.41,497.75 432.41,510.95 S 427.20,514.24 423.00,514.24 S 422.02,536.69 420.00,540.00 S 422.70,565.49 418.50,565.49 S 407.59,555.24 407.59,568.44 S 414.30,574.33 418.50,574.33 S 422.33,594.52 420.00,600.00 "></path><path stroke="#ff0000" fill="transparent" d="M 480,0 S 477.35,25.75 481.55,25.75 S 491.56,14.68 491.56,27.88 S 485.75,34.88 481.55,34.88 S 482.07,55.06 480.00,60.00 S 479.75,85.24 483.95,85.24 S 494.64,77.40 494.64,90.60 S 488.15,94.83 483.95,94.83 S 481.53,114.91 480.00,120.00 S 477.70,145.25 481.90,145.25 S 492.63,134.55 492.63,147.75 S 486.10,154.60 481.90,154.60 S 481.63,175.44 480.00,180.00 S 478.20,205.68 482.40,205.68 S 494.90,194.85 494.90,208.05 S 486.60,214.05 482.40,214.05 S 481.82,234.32 480.00,240.00 S 477.45,265.22 481.65,265.22 S 489.87,254.56 489.87,267.76 S 485.85,274.59 481.65,274.59 S 481.71,295.18 480.00,300.00 S 479.78,325.83 483.98,325.83 S 490.44,318.46 490.44,331.66 S 488.18,334.12 483.98,334.12 S 482.14,355.66 480.00,360.00 S 481.65,385.27 477.45,385.27 S 470.92,377.14 470.92,390.34 S 473.25,394.62 477.45,394.62 S 481.39,414.55 480.00,420.00 S 480.46,445.43 476.26,445.43 S 466.20,438.15 466.20,451.35 S 472.06,454.82 476.26,454.82 S 481.56,476.05 480.00,480.00 S 480.16,505.97 475.96,505.97 S 470.55,498.09 470.55,511.29 S 471.76,514.36 475.96,514.36 S 481.57,535.49 480.00,540.00 S 478.05,564.95 482.25,564.95 S 489.53,559.08 489.53,572.28 S 486.45,574.14 482.25,574.14 S 481.36,594.14 480.00,600.00 "></path><path stroke="#ff0000" fill="transparent" d="M 540,0 S 540.31,25.68 536.11,25.68 S 529.88,17.21 529.88,30.41 S 531.91,35.06 536.11,35.06 S 541.72,55.38 540.00,60.00 S 542.07,85.57 537.87,85.57 S 525.11,76.61 525.11,89.81 S 533.67,94.62 537.87,94.62 S 541.84,114.32 540.00,120.00 S 541.51,144.95 537.31,144.95 S 529.90,138.86 529.90,152.06 S 533.11,154.74 537.31,154.74 S 541.60,174.52 540.00,180.00 S 542.54,205.24 538.34,205.24 S 528.77,199.70 528.77,212.90 S 534.14,214.44 538.34,214.44 S 542.02,234.58 540.00,240.00 S 542.30,265.59 538.10,265.59 S 530.82,256.23 530.82,269.43 S 533.90,274.99 538.10,274.99 S 541.72,294.44 540.00,300.00 S 537.31,325.22 541.51,325.22 S 554.98,313.86 554.98,327.06 S 545.71,334.03 541.51,334.03 S 541.27,354.76 540.00,360.00 S 540.38,384.92 536.18,384.92 S 527.70,378.26 527.70,391.46 S 531.98,394.37 536.18,394.37 S 541.41,414.96 540.00,420.00 S 542.09,445.95 537.89,445.95 S 527.87,437.94 527.87,451.14 S 533.69,454.19 537.89,454.19 S 541.34,476.82 540.00,480.00 S 541.77,505.71 537.57,505.71 S 528.72,493.86 528.72,507.06 S 533.37,514.29 537.57,514.29 S 541.28,534.01 540.00,540.00 S 539.29,566.00 543.49,566.00 S 552.50,558.41 552.50,571.61 S 547.69,574.51 543.49,574.51 S 541.34,595.89 540.00,600.00 "></path><path stroke="#ff0000" fill="transparent" d="M 0,60 S 26.00,59.84 26.00,64.04 S 16.50,72.92 29.70,72.92 S 38.34,64.04 34.14,64.04 S 52.49,56.16 60.00,60.00 S 85.51,60.60 85.51,56.40 S 75.60,48.38 88.80,48.38 S 90.55,56.40 94.75,56.40 S 110.54,55.87 120.00,60.00 S 146.03,60.33 146.03,56.13 S 138.91,48.51 152.11,48.51 S 150.52,56.13 154.72,56.13 S 172.38,54.25 180.00,60.00 S 205.64,61.04 205.64,56.84 S 198.20,50.21 211.40,50.21 S 209.74,56.84 213.94,56.84 S 229.70,54.06 240.00,60.00 S 265.50,60.33 265.50,56.13 S 258.80,48.25 272.00,48.25 S 270.50,56.13 274.70,56.13 S 288.72,56.81 300.00,60.00 S 325.07,57.64 325.07,61.84 S 314.34,70.23 327.54,70.23 S 339.05,61.84 334.85,61.84 S 353.11,54.97 360.00,60.00 S 385.39,62.10 385.39,57.90 S 374.69,47.62 387.89,47.62 S 390.08,57.90 394.28,57.90 S 411.79,55.77 420.00,60.00 S 445.13,58.29 445.13,62.49 S 437.49,71.51 450.69,71.51 S 458.97,62.49 454.77,62.49 S 468.71,56.60 480.00,60.00 S 506.07,58.80 506.07,63.00 S 495.24,74.41 508.44,74.41 S 519.10,63.00 514.90,63.00 S 531.33,55.72 540.00,60.00 S 565.60,61.66 565.60,57.46 S 555.19,50.90 568.39,50.90 S 569.96,57.46 574.16,57.46 S 589.60,56.49 600.00,60.00 "></path><path stroke="#ff0000" fill="transparent" d="M 0,120 S 25.85,119.15 25.85,123.35 S 14.35,134.22 27.55,134.22 S 38.48,123.35 34.28,123.35 S 51.88,115.06 60.00,120.00 S 85.77,120.14 85.77,124.34 S 77.78,130.78 90.98,130.78 S 99.15,124.34 94.95,124.34 S 110.99,114.67 120.00,120.00 S 145.10,120.54 145.10,116.34 S 137.00,108.76 150.20,108.76 S 150.85,116.34 155.05,116.34 S 172.45,115.27 180.00,120.00 S 205.27,120.94 205.27,116.74 S 197.66,105.35 210.86,105.35 S 210.27,116.74 214.47,116.74 S 229.85,116.08 240.00,120.00 S 265.83,121.84 265.83,117.64 S 256.59,107.81 269.79,107.81 S 270.72,117.64 274.92,117.64 S 288.36,116.68 300.00,120.00 S 325.87,118.92 325.87,123.12 S 317.08,133.58 330.28,133.58 S 338.68,123.12 334.48,123.12 S 352.31,114.28 360.00,120.00 S 385.92,121.57 385.92,117.37 S 377.33,107.92 390.53,107.92 S 390.64,117.37 394.84,117.37 S 409.02,115.35 420.00,120.00 S 445.88,117.31 445.88,121.51 S 434.53,130.57 447.73,130.57 S 459.03,121.51 454.83,121.51 S 468.52,114.15 480.00,120.00 S 505.62,122.62 505.62,118.42 S 499.56,106.58 512.76,106.58 S 510.23,118.42 514.43,118.42 S 532.61,114.67 540.00,120.00 S 565.33,121.07 565.33,116.87 S 557.15,107.12 570.35,107.12 S 570.46,116.87 574.66,116.87 S 589.22,115.35 600.00,120.00 "></path><path stroke="#ff0000" fill="transparent" d="M 0,180 S 25.30,179.26 25.30,183.46 S 19.57,192.65 32.77,192.65 S 38.53,183.46 34.33,183.46 S 49.77,174.47 60.00,180.00 S 85.06,179.25 85.06,183.45 S 74.33,193.66 87.53,193.66 S 99.04,183.45 94.84,183.45 S 108.89,174.42 120.00,180.00 S 144.96,182.47 144.96,178.27 S 139.60,170.51 152.80,170.51 S 150.09,178.27 154.29,178.27 S 173.86,175.52 180.00,180.00 S 206.04,182.22 206.04,178.02 S 197.25,168.33 210.45,168.33 S 210.20,178.02 214.40,178.02 S 231.46,175.55 240.00,180.00 S 265.94,177.76 265.94,181.96 S 259.40,192.17 272.60,192.17 S 278.27,181.96 274.07,181.96 S 288.72,174.42 300.00,180.00 S 325.75,178.32 325.75,182.52 S 316.21,192.50 329.41,192.50 S 338.28,182.52 334.08,182.52 S 351.79,175.55 360.00,180.00 S 386.05,180.42 386.05,176.22 S 375.72,167.50 388.92,167.50 S 390.46,176.22 394.66,176.22 S 410.41,175.60 420.00,180.00 S 445.11,179.91 445.11,184.11 S 436.94,194.29 450.14,194.29 S 458.76,184.11 454.56,184.11 S 468.38,176.21 480.00,180.00 S 504.91,180.26 504.91,184.46 S 499.17,193.85 512.37,193.85 S 518.47,184.46 514.27,184.46 S 531.59,176.18 540.00,180.00 S 565.65,181.35 565.65,177.15 S 558.11,165.51 571.31,165.51 S 570.41,177.15 574.61,177.15 S 591.58,176.11 600.00,180.00 "></path><path stroke="#ff0000" fill="transparent" d="M 0,240 S 25.41,240.55 25.41,236.35 S 18.84,226.04 32.04,226.04 S 30.77,236.35 34.97,236.35 S 49.97,236.91 60.00,240.00 S 85.15,238.57 85.15,242.77 S 76.87,252.11 90.07,252.11 S 99.15,242.77 94.95,242.77 S 109.91,236.09 120.00,240.00 S 146.01,238.59 146.01,242.79 S 134.13,251.91 147.33,251.91 S 158.45,242.79 154.25,242.79 S 171.18,236.21 180.00,240.00 S 205.95,241.10 205.95,236.90 S 195.09,228.03 208.29,228.03 S 210.87,236.90 215.07,236.90 S 232.44,234.65 240.00,240.00 S 264.96,241.65 264.96,237.45 S 255.63,226.85 268.83,226.85 S 270.40,237.45 274.60,237.45 S 293.66,234.06 300.00,240.00 S 325.05,240.05 325.05,244.25 S 318.82,249.33 332.02,249.33 S 338.59,244.25 334.39,244.25 S 351.58,234.88 360.00,240.00 S 385.67,241.47 385.67,237.27 S 374.74,230.52 387.94,230.52 S 389.83,237.27 394.03,237.27 S 408.74,234.43 420.00,240.00 S 445.02,240.28 445.02,236.08 S 436.76,225.60 449.96,225.60 S 450.44,236.08 454.64,236.08 S 470.09,234.08 480.00,240.00 S 505.37,238.25 505.37,242.45 S 497.26,254.08 510.46,254.08 S 519.28,242.45 515.08,242.45 S 528.74,234.11 540.00,240.00 S 565.37,240.16 565.37,244.36 S 555.54,252.87 568.74,252.87 S 578.74,244.36 574.54,244.36 S 593.89,234.81 600.00,240.00 "></path><path stroke="#ff0000" fill="transparent" d="M 0,300 S 25.82,300.10 25.82,295.90 S 17.16,289.34 30.36,289.34 S 30.46,295.90 34.66,295.90 S 51.44,295.11 60.00,300.00 S 85.52,301.65 85.52,297.45 S 75.35,290.08 88.55,290.08 S 90.49,297.45 94.69,297.45 S 113.45,296.66 120.00,300.00 S 145.46,298.04 145.46,302.24 S 136.35,309.98 149.55,309.98 S 158.29,302.24 154.09,302.24 S 171.89,294.92 180.00,300.00 S 205.63,301.49 205.63,297.29 S 199.49,285.80 212.69,285.80 S 209.87,297.29 214.07,297.29 S 229.73,295.72 240.00,300.00 S 265.25,301.24 265.25,297.04 S 259.55,286.72 272.75,286.72 S 270.14,297.04 274.34,297.04 S 293.45,296.59 300.00,300.00 S 325.56,298.33 325.56,302.53 S 314.67,313.26 327.87,313.26 S 338.22,302.53 334.02,302.53 S 352.23,295.28 360.00,300.00 S 385.69,300.02 385.69,304.22 S 377.07,310.71 390.27,310.71 S 399.19,304.22 394.99,304.22 S 410.39,296.54 420.00,300.00 S 446.04,299.98 446.04,304.18 S 433.85,310.68 447.05,310.68 S 458.97,304.18 454.77,304.18 S 472.06,296.02 480.00,300.00 S 505.37,299.58 505.37,303.78 S 493.86,311.51 507.06,311.51 S 518.40,303.78 514.20,303.78 S 529.88,296.78 540.00,300.00 S 566.04,298.01 566.04,302.21 S 556.02,309.71 569.22,309.71 S 578.21,302.21 574.01,302.21 S 590.61,295.74 600.00,300.00 "></path><path stroke="#ff0000" fill="transparent" d="M 0,360 S 25.86,360.67 25.86,356.47 S 17.59,345.40 30.79,345.40 S 29.93,356.47 34.13,356.47 S 49.95,354.54 60.00,360.00 S 85.22,357.90 85.22,362.10 S 76.43,371.69 89.63,371.69 S 98.85,362.10 94.65,362.10 S 110.43,355.13 120.00,360.00 S 144.92,358.81 144.92,363.01 S 139.69,369.65 152.89,369.65 S 158.89,363.01 154.69,363.01 S 170.16,356.09 180.00,360.00 S 205.18,358.31 205.18,362.51 S 195.51,372.94 208.71,372.94 S 218.68,362.51 214.48,362.51 S 231.90,354.59 240.00,360.00 S 265.11,361.82 265.11,357.62 S 255.47,347.84 268.67,347.84 S 270.24,357.62 274.44,357.62 S 290.37,355.89 300.00,360.00 S 325.78,357.79 325.78,361.99 S 317.28,371.94 330.48,371.94 S 339.09,361.99 334.89,361.99 S 348.03,354.00 360.00,360.00 S 385.33,361.59 385.33,357.39 S 379.11,350.90 392.31,350.90 S 389.74,357.39 393.94,357.39 S 410.96,355.87 420.00,360.00 S 445.81,361.18 445.81,356.98 S 438.51,347.15 451.71,347.15 S 450.53,356.98 454.73,356.98 S 468.09,354.97 480.00,360.00 S 506.02,358.00 506.02,362.20 S 496.60,372.89 509.80,372.89 S 518.40,362.20 514.20,362.20 S 528.36,356.68 540.00,360.00 S 565.62,360.66 565.62,356.46 S 559.61,348.87 572.81,348.87 S 569.76,356.46 573.96,356.46 S 591.07,355.91 600.00,360.00 "></path><path stroke="#ff0000" fill="transparent" d="M 0,420 S 25.94,421.27 25.94,417.07 S 16.61,410.67 29.81,410.67 S 30.54,417.07 34.74,417.07 S 50.56,415.97 60.00,420.00 S 86.07,419.97 86.07,415.77 S 74.32,405.89 87.52,405.89 S 90.12,415.77 94.32,415.77 S 110.80,416.38 120.00,420.00 S 145.49,421.68 145.49,417.48 S 134.43,407.01 147.63,407.01 S 150.45,417.48 154.65,417.48 S 173.13,416.48 180.00,420.00 S 206.02,421.35 206.02,417.15 S 197.87,406.21 211.07,406.21 S 210.45,417.15 214.65,417.15 S 233.47,416.10 240.00,420.00 S 265.92,417.95 265.92,422.15 S 258.68,434.60 271.88,434.60 S 278.50,422.15 274.30,422.15 S 289.62,415.36 300.00,420.00 S 325.47,419.10 325.47,423.30 S 317.80,430.96 331.00,430.96 S 338.93,423.30 334.73,423.30 S 348.59,416.34 360.00,420.00 S 385.60,419.72 385.60,423.92 S 377.01,429.33 390.21,429.33 S 398.99,423.92 394.79,423.92 S 411.94,414.37 420.00,420.00 S 445.07,421.84 445.07,417.64 S 437.50,405.60 450.70,405.60 S 450.50,417.64 454.70,417.64 S 473.70,416.31 480.00,420.00 S 505.82,419.35 505.82,423.55 S 498.27,429.23 511.47,429.23 S 518.49,423.55 514.29,423.55 S 528.03,415.94 540.00,420.00 S 565.62,420.26 565.62,424.46 S 554.38,433.54 567.58,433.54 S 578.33,424.46 574.13,424.46 S 590.54,414.09 600.00,420.00 "></path><path stroke="#ff0000" fill="transparent" d="M 0,480 S 25.45,480.27 25.45,476.07 S 14.33,466.99 27.53,466.99 S 30.73,476.07 34.93,476.07 S 53.66,474.77 60.00,480.00 S 85.60,480.73 85.60,476.53 S 74.53,466.68 87.73,466.68 S 90.69,476.53 94.89,476.53 S 108.99,476.09 120.00,480.00 S 145.64,480.07 145.64,475.87 S 136.13,468.80 149.33,468.80 S 150.87,475.87 155.07,475.87 S 172.39,474.59 180.00,480.00 S 204.94,478.37 204.94,482.57 S 197.92,493.25 211.12,493.25 S 218.35,482.57 214.15,482.57 S 233.47,474.73 240.00,480.00 S 265.21,479.62 265.21,483.82 S 254.92,494.79 268.12,494.79 S 278.33,483.82 274.13,483.82 S 290.77,476.33 300.00,480.00 S 326.05,477.52 326.05,481.72 S 319.57,490.65 332.77,490.65 S 338.64,481.72 334.44,481.72 S 353.06,474.69 360.00,480.00 S 385.88,477.85 385.88,482.05 S 375.54,492.31 388.74,492.31 S 398.20,482.05 394.00,482.05 S 408.53,476.17 420.00,480.00 S 445.30,480.66 445.30,476.46 S 434.06,468.59 447.26,468.59 S 449.86,476.46 454.06,476.46 S 471.82,475.43 480.00,480.00 S 505.84,481.34 505.84,477.14 S 498.60,467.13 511.80,467.13 S 510.88,477.14 515.08,477.14 S 533.86,476.06 540.00,480.00 S 565.20,477.85 565.20,482.05 S 559.06,492.70 572.26,492.70 S 578.48,482.05 574.28,482.05 S 590.07,475.75 600.00,480.00 "></path><path stroke="#ff0000" fill="transparent" d="M 0,540 S 25.26,540.37 25.26,536.17 S 19.56,526.70 32.76,526.70 S 30.75,536.17 34.95,536.17 S 48.20,535.06 60.00,540.00 S 85.96,542.48 85.96,538.28 S 75.89,528.41 89.09,528.41 S 90.59,538.28 94.79,538.28 S 110.96,535.43 120.00,540.00 S 145.30,540.00 145.30,535.80 S 136.47,527.69 149.67,527.69 S 150.02,535.80 154.22,535.80 S 168.30,536.60 180.00,540.00 S 206.08,542.05 206.08,537.85 S 199.13,525.04 212.33,525.04 S 210.02,537.85 214.22,537.85 S 229.39,534.04 240.00,540.00 S 265.31,540.71 265.31,536.51 S 255.25,527.14 268.45,527.14 S 270.78,536.51 274.98,536.51 S 290.63,534.46 300.00,540.00 S 325.38,540.18 325.38,544.38 S 315.81,550.83 329.01,550.83 S 338.28,544.38 334.08,544.38 S 348.37,534.53 360.00,540.00 S 384.95,540.12 384.95,535.92 S 379.50,528.01 392.70,528.01 S 390.52,535.92 394.72,535.92 S 410.49,534.41 420.00,540.00 S 445.01,540.39 445.01,536.19 S 435.57,528.02 448.77,528.02 S 450.23,536.19 454.43,536.19 S 468.24,534.36 480.00,540.00 S 505.19,539.51 505.19,543.71 S 496.42,550.81 509.62,550.81 S 518.18,543.71 513.98,543.71 S 531.07,535.27 540.00,540.00 S 565.80,539.70 565.80,543.90 S 557.59,552.70 570.79,552.70 S 579.14,543.90 574.94,543.90 S 590.67,535.82 600.00,540.00 "></path></svg>