<svg id="svg" xmlns="http://www.w3.org/2000/svg" width="600px" height="600px"><path stroke="#ff0000" fill="transparent" d="M 0,0 L 600,0 L 600,600 L 0,600 L 0,0"></path><path stroke="#ff0000" fill="transparent" d="M 120,0 S 120.86,50.25 112.46,50.25 S 91.60,29.39 91.60,55.79 S 104.06,69.29 112.46,69.29 S 124.20,110.12 120.00,120.00 S 123.37,170.08 114.97,170.08 S 101.87,152.36 101.87,178.76 S 106.57,190.20 114.97,190.20 S 123.19,229.10 120.00,240.00 S 116.99,291.12 125.39,291.12 S 145.06,275.08 145.06,301.48 S 133.79,309.06 125.39,309.06 S 124.58,348.61 120.00,360.00 S 114.98,410.70 123.38,410.70 S 140.55,391.50 140.55,417.90 S 131.78,428.59 123.38,428.59 S 123.02,470.54 120.00,480.00 S 117.59,531.45 125.99,531.45 S 148.33,514.04 148.33,540.44 S 134.39,549.78 125.99,549.78 S 124.55,591.37 120.00,600.00 "></path><path stroke="#ff0000" fill="transparent" d="M 240,0 S 238.31,51.24 246.71,51.24 S 265.67,38.95 265.67,65.35 S 255.11,69.19 246.71,69.19 S 244.26,108.41 240.00,120.00 S 243.73,172.15 235.33,172.15 S 219.88,150.86 219.88,177.26 S 226.93,189.92 235.33,189.92 S 243.67,233.60 240.00,240.00 S 240.63,290.27 232.23,290.27 S 220.68,275.25 220.68,301.65 S 223.83,309.95 232.23,309.95 S 242.40,351.30 240.00,360.00 S 237.10,410.35 245.50,410.35 S 258.64,394.12 258.64,420.52 S 253.90,428.66 245.50,428.66 S 243.91,473.82 240.00,480.00 S 244.66,529.93 236.26,529.93 S 214.74,514.13 214.74,540.53 S 227.86,547.87 236.26,547.87 S 243.68,593.79 240.00,600.00 "></path><path stroke="#ff0000" fill="transparent" d="M 360,0 S 363.03,50.92 354.63,50.92 S 341.06,31.44 341.06,57.84 S 346.23,68.12 354.63,68.12 S 363.36,108.65 360.00,120.00 S 363.40,171.54 355.00,171.54 S 335.47,148.84 335.47,175.24 S 346.60,188.11 355.00,188.11 S 363.86,229.43 360.00,240.00 S 357.04,292.08 365.44,292.08 S 387.90,276.80 387.90,303.20 S 373.84,308.05 365.44,308.05 S 363.72,349.39 360.00,360.00 S 358.64,409.88 367.04,409.88 S 382.21,389.91 382.21,416.31 S 375.44,429.64 367.04,429.64 S 362.63,472.43 360.00,480.00 S 364.56,530.90 356.16,530.90 S 341.56,508.17 341.56,534.57 S 347.76,549.60 356.16,549.60 S 362.97,592.01 360.00,600.00 "></path><path stroke="#ff0000" fill="transparent" d="M 480,0 S 484.45,50.14 476.05,50.14 S 457.55,32.57 457.55,58.97 S 467.65,68.96 476.05,68.96 S 482.75,108.90 480.00,120.00 S 474.80,172.08 483.20,172.08 S 505.89,151.28 505.89,177.68 S 491.60,189.14 483.20,189.14 S 484.48,230.34 480.00,240.00 S 478.87,291.66 487.27,291.66 S 504.35,278.29 504.35,304.69 S 495.67,309.10 487.27,309.10 S 482.45,349.57 480.00,360.00 S 482.76,412.05 474.36,412.05 S 455.77,391.35 455.77,417.75 S 465.96,429.42 474.36,429.42 S 483.44,470.48 480.00,480.00 S 476.79,530.32 485.19,530.32 S 506.15,513.37 506.15,539.77 S 493.59,549.64 485.19,549.64 S 484.18,588.37 480.00,600.00 "></path><path stroke="#ff0000" fill="transparent" d="M 0,120 S 51.46,124.91 51.46,116.51 S 34.72,93.05 61.12,93.05 S 60.15,116.51 68.55,116.51 S 98.15,113.94 120.00,120.00 S 171.29,117.00 171.29,125.40 S 149.35,148.83 175.75,148.83 S 196.74,125.40 188.34,125.40 S 221.52,113.04 240.00,120.00 S 291.22,123.40 291.22,115.00 S 276.15,90.07 302.55,90.07 S 299.93,115.00 308.33,115.00 S 346.11,109.90 360.00,120.00 S 410.20,118.46 410.20,126.86 S 394.06,148.82 420.46,148.82 S 437.56,126.86 429.16,126.86 S 460.83,108.85 480.00,120.00 S 530.33,118.25 530.33,126.65 S 516.73,146.10 543.13,146.10 S 556.84,126.65 548.44,126.65 S 587.97,109.83 600.00,120.00 "></path><path stroke="#ff0000" fill="transparent" d="M 0,240 S 50.53,243.33 50.53,234.93 S 30.47,211.50 56.87,211.50 S 61.31,234.93 69.71,234.93 S 98.52,232.03 120.00,240.00 S 172.02,238.71 172.02,247.11 S 152.92,267.86 179.32,267.86 S 197.93,247.11 189.53,247.11 S 221.39,232.62 240.00,240.00 S 290.37,235.55 290.37,243.95 S 272.50,264.57 298.90,264.57 S 316.20,243.95 307.80,243.95 S 337.48,231.14 360.00,240.00 S 411.61,242.91 411.61,234.51 S 393.62,220.47 420.02,220.47 S 421.78,234.51 430.18,234.51 S 456.53,232.60 480.00,240.00 S 532.20,234.93 532.20,243.33 S 516.21,269.93 542.61,269.93 S 556.73,243.33 548.33,243.33 S 581.00,228.24 600.00,240.00 "></path><path stroke="#ff0000" fill="transparent" d="M 0,360 S 50.85,362.20 50.85,353.80 S 35.91,339.27 62.31,339.27 S 61.28,353.80 69.68,353.80 S 106.88,353.57 120.00,360.00 S 171.48,359.19 171.48,367.59 S 148.52,382.45 174.92,382.45 S 198.41,367.59 190.01,367.59 S 219.86,350.96 240.00,360.00 S 290.73,356.06 290.73,364.46 S 270.72,384.26 297.12,384.26 S 316.84,364.46 308.44,364.46 S 341.94,353.78 360.00,360.00 S 411.41,359.78 411.41,351.38 S 399.48,335.86 425.88,335.86 S 419.43,351.38 427.83,351.38 S 466.92,352.66 480.00,360.00 S 529.93,354.72 529.93,363.12 S 515.06,386.88 541.46,386.88 S 558.52,363.12 550.12,363.12 S 583.49,350.41 600.00,360.00 "></path><path stroke="#ff0000" fill="transparent" d="M 0,480 S 51.08,480.31 51.08,488.71 S 30.29,508.82 56.69,508.82 S 78.52,488.71 70.12,488.71 S 105.21,473.32 120.00,480.00 S 170.62,484.28 170.62,475.88 S 158.92,453.05 185.32,453.05 S 180.21,475.88 188.61,475.88 S 227.59,471.06 240.00,480.00 S 290.71,479.26 290.71,487.66 S 272.05,509.39 298.45,509.39 S 317.36,487.66 308.96,487.66 S 346.01,470.42 360.00,480.00 S 412.09,478.87 412.09,487.27 S 395.93,504.63 422.33,504.63 S 438.45,487.27 430.05,487.27 S 467.98,468.97 480.00,480.00 S 531.68,479.99 531.68,471.59 S 516.80,458.90 543.20,458.90 S 540.91,471.59 549.31,471.59 S 578.34,469.82 600.00,480.00 "></path></svg>