<svg id="svg" xmlns="http://www.w3.org/2000/svg" width="600px" height="600px"><path stroke="#ff0000" fill="transparent" d="M 0,0 L 600,0 L 600,600 L 0,600 L 0,0"></path><path stroke="#ff0000" fill="transparent" d="M 100,0 S 99.67,42.20 92.67,42.20 S 83.92,23.09 83.92,45.09 S 85.67,56.79 92.67,56.79 S 103.86,91.18 100.00,100.00 S 99.66,143.45 106.66,143.45 S 118.49,131.53 118.49,153.53 S 113.66,157.58 106.66,157.58 S 102.42,192.00 100.00,200.00 S 102.06,242.26 95.06,242.26 S 81.89,226.07 81.89,248.07 S 88.06,256.72 95.06,256.72 S 103.67,291.73 100.00,300.00 S 96.81,341.59 103.81,341.59 S 122.15,328.35 122.15,350.35 S 110.81,358.25 103.81,358.25 S 103.35,390.31 100.00,400.00 S 98.49,442.45 105.49,442.45 S 119.67,424.86 119.67,446.86 S 112.49,456.96 105.49,456.96 S 102.37,491.04 100.00,500.00 S 99.52,542.16 92.52,542.16 S 77.60,530.29 77.60,552.29 S 85.52,557.68 92.52,557.68 S 102.55,590.92 100.00,600.00 "></path><path stroke="#ff0000" fill="transparent" d="M 200,0 S 199.70,42.40 192.70,42.40 S 184.26,28.01 184.26,50.01 S 185.70,57.50 192.70,57.50 S 203.10,94.02 200.00,100.00 S 198.20,142.16 205.20,142.16 S 215.74,131.91 215.74,153.91 S 212.20,157.05 205.20,157.05 S 202.05,191.61 200.00,200.00 S 201.88,242.13 194.88,242.13 S 176.10,231.46 176.10,253.46 S 187.88,257.21 194.88,257.21 S 203.65,291.62 200.00,300.00 S 203.91,342.36 196.91,342.36 S 179.93,331.50 179.93,353.50 S 189.91,357.01 196.91,357.01 S 203.61,391.95 200.00,400.00 S 198.17,441.88 205.17,441.88 S 223.45,427.19 223.45,449.19 S 212.17,456.95 205.17,456.95 S 203.96,494.82 200.00,500.00 S 199.87,542.25 192.87,542.25 S 182.19,523.93 182.19,545.93 S 185.87,557.19 192.87,557.19 S 202.34,590.11 200.00,600.00 "></path><path stroke="#ff0000" fill="transparent" d="M 300,0 S 303.01,42.58 296.01,42.58 S 284.20,31.49 284.20,53.49 S 289.01,57.86 296.01,57.86 S 302.96,93.02 300.00,100.00 S 295.75,142.58 302.75,142.58 S 317.81,124.84 317.81,146.84 S 309.75,158.43 302.75,158.43 S 303.95,191.98 300.00,200.00 S 302.82,241.81 295.82,241.81 S 281.73,223.52 281.73,245.52 S 288.82,258.04 295.82,258.04 S 302.83,292.97 300.00,300.00 S 296.82,341.99 303.82,341.99 S 316.41,331.51 316.41,353.51 S 310.82,356.90 303.82,356.90 S 303.18,390.84 300.00,400.00 S 300.04,442.92 307.04,442.92 S 315.54,424.03 315.54,446.03 S 314.04,458.26 307.04,458.26 S 303.07,493.86 300.00,500.00 S 299.03,543.16 306.03,543.16 S 316.08,526.45 316.08,548.45 S 313.03,558.20 306.03,558.20 S 303.20,594.16 300.00,600.00 "></path><path stroke="#ff0000" fill="transparent" d="M 400,0 S 399.80,42.44 406.80,42.44 S 424.39,24.84 424.39,46.84 S 413.80,57.53 406.80,57.53 S 403.10,93.96 400.00,100.00 S 403.02,141.64 396.02,141.64 S 383.93,128.22 383.93,150.22 S 389.02,157.61 396.02,157.61 S 402.04,191.87 400.00,200.00 S 396.95,242.61 403.95,242.61 S 417.80,225.98 417.80,247.98 S 410.95,258.30 403.95,258.30 S 403.14,292.81 400.00,300.00 S 400.14,341.57 407.14,341.57 S 420.45,325.15 420.45,347.15 S 414.14,357.35 407.14,357.35 S 402.77,393.05 400.00,400.00 S 400.42,441.89 393.42,441.89 S 379.98,425.73 379.98,447.73 S 386.42,457.79 393.42,457.79 S 403.76,494.23 400.00,500.00 S 402.06,542.65 395.06,542.65 S 380.63,526.82 380.63,548.82 S 388.06,557.14 395.06,557.14 S 403.60,593.67 400.00,600.00 "></path><path stroke="#ff0000" fill="transparent" d="M 500,0 S 495.58,42.38 502.58,42.38 S 517.65,31.54 517.65,53.54 S 509.58,57.50 502.58,57.50 S 502.95,93.27 500.00,100.00 S 498.67,143.42 505.67,143.42 S 521.61,130.63 521.61,152.63 S 512.67,156.58 505.67,156.58 S 502.74,193.45 500.00,200.00 S 501.51,242.41 494.51,242.41 S 475.10,229.66 475.10,251.66 S 487.51,258.40 494.51,258.40 S 503.42,294.51 500.00,300.00 S 503.73,341.55 496.73,341.55 S 478.28,327.25 478.28,349.25 S 489.73,357.07 496.73,357.07 S 502.63,392.30 500.00,400.00 S 504.16,443.27 497.16,443.27 S 483.05,427.06 483.05,449.06 S 490.16,456.59 497.16,456.59 S 503.93,491.47 500.00,500.00 S 498.16,542.19 505.16,542.19 S 516.04,530.51 516.04,552.51 S 512.16,556.87 505.16,556.87 S 503.95,592.28 500.00,600.00 "></path><path stroke="#ff0000" fill="transparent" d="M 0,100 S 42.77,100.84 42.77,93.84 S 26.81,76.68 48.81,76.68 S 50.31,93.84 57.31,93.84 S 84.31,93.93 100.00,100.00 S 141.56,97.98 141.56,104.98 S 131.94,120.06 153.94,120.06 S 163.60,104.98 156.60,104.98 S 180.64,92.15 200.00,100.00 S 241.94,103.66 241.94,96.66 S 232.08,75.73 254.08,75.73 S 250.04,96.66 257.04,96.66 S 287.93,92.69 300.00,100.00 S 342.27,102.60 342.27,95.60 S 331.41,81.11 353.41,81.11 S 349.81,95.60 356.81,95.60 S 380.04,92.25 400.00,100.00 S 443.44,104.13 443.44,97.13 S 423.05,84.43 445.05,84.43 S 450.26,97.13 457.26,97.13 S 485.77,91.43 500.00,100.00 S 542.75,101.50 542.75,94.50 S 530.94,77.75 552.94,77.75 S 550.14,94.50 557.14,94.50 S 587.66,92.00 600.00,100.00 "></path><path stroke="#ff0000" fill="transparent" d="M 0,200 S 42.27,200.17 42.27,207.17 S 25.10,216.47 47.10,216.47 S 64.87,207.17 57.87,207.17 S 83.42,191.58 100.00,200.00 S 143.38,203.23 143.38,196.23 S 127.11,182.90 149.11,182.90 S 151.11,196.23 158.11,196.23 S 187.44,191.78 200.00,200.00 S 241.99,203.25 241.99,196.25 S 229.58,182.23 251.58,182.23 S 249.72,196.25 256.72,196.25 S 287.15,193.16 300.00,200.00 S 341.67,200.12 341.67,207.12 S 324.92,217.12 346.92,217.12 S 364.49,207.12 357.49,207.12 S 385.58,190.56 400.00,200.00 S 442.46,197.95 442.46,204.95 S 427.85,215.79 449.85,215.79 S 463.52,204.95 456.52,204.95 S 484.67,192.30 500.00,200.00 S 542.53,199.94 542.53,192.94 S 530.09,178.55 552.09,178.55 S 549.79,192.94 556.79,192.94 S 584.89,191.07 600.00,200.00 "></path><path stroke="#ff0000" fill="transparent" d="M 0,300 S 42.13,299.68 42.13,292.68 S 29.65,277.09 51.65,277.09 S 50.86,292.68 57.86,292.68 S 89.46,294.35 100.00,300.00 S 143.33,295.72 143.33,302.72 S 126.36,323.53 148.36,323.53 S 165.50,302.72 158.50,302.72 S 181.55,291.85 200.00,300.00 S 242.36,301.32 242.36,294.32 S 230.97,284.90 252.97,284.90 S 250.05,294.32 257.05,294.32 S 287.55,293.89 300.00,300.00 S 342.93,299.90 342.93,292.90 S 327.97,277.12 349.97,277.12 S 351.23,292.90 358.23,292.90 S 387.37,292.50 400.00,300.00 S 441.80,298.58 441.80,305.58 S 425.92,322.98 447.92,322.98 S 463.65,305.58 456.65,305.58 S 480.56,293.11 500.00,300.00 S 541.58,296.76 541.58,303.76 S 524.83,324.41 546.83,324.41 S 564.69,303.76 557.69,303.76 S 586.27,290.28 600.00,300.00 "></path><path stroke="#ff0000" fill="transparent" d="M 0,400 S 41.88,398.22 41.88,405.22 S 24.91,415.69 46.91,415.69 S 65.48,405.22 58.48,405.22 S 82.13,392.48 100.00,400.00 S 142.76,397.85 142.76,404.85 S 125.39,419.77 147.39,419.77 S 165.39,404.85 158.39,404.85 S 182.99,394.94 200.00,400.00 S 242.72,403.62 242.72,396.62 S 228.88,383.66 250.88,383.66 S 250.68,396.62 257.68,396.62 S 284.16,394.79 300.00,400.00 S 342.83,399.09 342.83,406.09 S 327.82,415.57 349.82,415.57 S 365.46,406.09 358.46,406.09 S 381.69,392.12 400.00,400.00 S 442.01,404.11 442.01,397.11 S 426.53,382.23 448.53,382.23 S 449.93,397.11 456.93,397.11 S 486.68,392.68 500.00,400.00 S 541.58,398.18 541.58,405.18 S 531.18,421.41 553.18,421.41 S 564.48,405.18 557.48,405.18 S 589.13,391.23 600.00,400.00 "></path><path stroke="#ff0000" fill="transparent" d="M 0,500 S 43.00,496.50 43.00,503.50 S 28.14,517.75 50.14,517.75 S 65.19,503.50 58.19,503.50 S 87.35,490.61 100.00,500.00 S 141.81,500.46 141.81,493.46 S 132.16,479.59 154.16,479.59 S 150.50,493.46 157.50,493.46 S 188.09,492.52 200.00,500.00 S 243.01,499.84 243.01,492.84 S 226.41,484.84 248.41,484.84 S 250.77,492.84 257.77,492.84 S 283.18,491.23 300.00,500.00 S 341.63,499.51 341.63,492.51 S 325.67,483.85 347.67,483.85 S 350.35,492.51 357.35,492.51 S 388.93,492.29 400.00,500.00 S 442.69,497.83 442.69,504.83 S 423.63,515.91 445.63,515.91 S 463.58,504.83 456.58,504.83 S 484.07,493.92 500.00,500.00 S 541.96,498.72 541.96,505.72 S 530.56,523.81 552.56,523.81 S 564.81,505.72 557.81,505.72 S 588.02,491.14 600.00,500.00 "></path></svg>