<svg id="svg" xmlns="http://www.w3.org/2000/svg" width="600px" height="600px"><path stroke="#ff0000" fill="transparent" d="M 0,0 L 600,0 L 600,600 L 0,600 L 0,0"></path><path stroke="#ff0000" fill="transparent" d="M 75,0 S 76.03,31.89 70.78,31.89 S 57.52,18.90 57.52,35.40 S 65.53,42.60 70.78,42.60 S 77.09,68.56 75.00,75.00 S 77.26,106.17 72.01,106.17 S 63.73,99.11 63.73,115.61 S 66.76,118.05 72.01,118.05 S 77.97,143.71 75.00,150.00 S 73.23,182.21 78.48,182.21 S 86.50,173.10 86.50,189.60 S 83.73,193.52 78.48,193.52 S 76.97,218.00 75.00,225.00 S 74.97,257.32 69.72,257.32 S 62.12,246.15 62.12,262.65 S 64.47,268.72 69.72,268.72 S 77.61,295.27 75.00,300.00 S 71.94,332.54 77.19,332.54 S 87.72,322.41 87.72,338.91 S 82.44,342.57 77.19,342.57 S 77.56,368.34 75.00,375.00 S 77.96,407.59 72.71,407.59 S 60.64,394.38 60.64,410.88 S 67.46,417.88 72.71,417.88 S 77.39,444.58 75.00,450.00 S 77.24,481.84 71.99,481.84 S 60.35,474.45 60.35,490.95 S 66.74,492.99 71.99,492.99 S 77.89,520.74 75.00,525.00 S 76.88,556.96 71.63,556.96 S 59.11,546.77 59.11,563.27 S 66.38,567.51 71.63,567.51 S 77.14,592.60 75.00,600.00 "></path><path stroke="#ff0000" fill="transparent" d="M 150,0 S 150.09,31.33 144.84,31.33 S 133.12,22.95 133.12,39.45 S 139.59,43.17 144.84,43.17 S 152.71,70.56 150.00,75.00 S 152.26,106.60 147.01,106.60 S 131.97,93.41 131.97,109.91 S 141.76,118.11 147.01,118.11 S 152.42,143.46 150.00,150.00 S 151.13,181.46 145.88,181.46 S 137.62,173.54 137.62,190.04 S 140.63,192.48 145.88,192.48 S 152.20,218.25 150.00,225.00 S 153.34,256.63 148.09,256.63 S 138.12,248.02 138.12,264.52 S 142.84,268.02 148.09,268.02 S 152.56,295.48 150.00,300.00 S 149.39,332.39 154.64,332.39 S 162.44,321.31 162.44,337.81 S 159.89,343.19 154.64,343.19 S 152.11,370.29 150.00,375.00 S 152.52,406.41 147.27,406.41 S 138.39,399.01 138.39,415.51 S 142.02,417.62 147.27,417.62 S 152.86,445.75 150.00,450.00 S 149.86,481.39 155.11,481.39 S 164.73,472.11 164.73,488.61 S 160.36,492.54 155.11,492.54 S 151.59,517.91 150.00,525.00 S 151.19,556.18 145.94,556.18 S 135.15,543.98 135.15,560.48 S 140.69,568.66 145.94,568.66 S 151.65,595.07 150.00,600.00 "></path><path stroke="#ff0000" fill="transparent" d="M 225,0 S 227.03,32.32 221.78,32.32 S 207.72,21.72 207.72,38.22 S 216.53,43.22 221.78,43.22 S 227.27,70.09 225.00,75.00 S 224.48,106.92 229.73,106.92 S 238.98,94.56 238.98,111.06 S 234.98,117.42 229.73,117.42 S 227.31,143.11 225.00,150.00 S 226.52,181.92 221.27,181.92 S 207.41,169.89 207.41,186.39 S 216.02,192.65 221.27,192.65 S 226.72,219.39 225.00,225.00 S 223.24,257.13 228.49,257.13 S 240.37,246.85 240.37,263.35 S 233.74,268.68 228.49,268.68 S 226.72,295.88 225.00,300.00 S 227.60,331.93 222.35,331.93 S 207.88,319.19 207.88,335.69 S 217.10,342.97 222.35,342.97 S 227.74,371.24 225.00,375.00 S 223.25,407.12 228.50,407.12 S 239.47,393.77 239.47,410.27 S 233.75,417.69 228.50,417.69 S 226.87,445.07 225.00,450.00 S 226.39,481.79 221.14,481.79 S 212.71,470.27 212.71,486.77 S 215.89,493.48 221.14,493.48 S 227.16,517.91 225.00,525.00 S 221.82,556.69 227.07,556.69 S 238.63,544.47 238.63,560.97 S 232.32,568.57 227.07,568.57 S 226.79,595.07 225.00,600.00 "></path><path stroke="#ff0000" fill="transparent" d="M 300,0 S 301.34,31.92 296.09,31.92 S 284.81,24.35 284.81,40.85 S 290.84,42.85 296.09,42.85 S 302.35,69.78 300.00,75.00 S 297.83,106.77 303.08,106.77 S 312.81,99.57 312.81,116.07 S 308.33,118.34 303.08,118.34 S 302.68,143.07 300.00,150.00 S 298.60,182.43 303.85,182.43 S 313.40,171.82 313.40,188.32 S 309.10,192.92 303.85,192.92 S 302.12,220.33 300.00,225.00 S 296.83,257.04 302.08,257.04 S 316.19,244.05 316.19,260.55 S 307.33,267.66 302.08,267.66 S 302.72,293.44 300.00,300.00 S 301.31,332.54 296.06,332.54 S 283.64,319.87 283.64,336.37 S 290.81,342.89 296.06,342.89 S 302.88,368.28 300.00,375.00 S 297.89,407.19 303.14,407.19 S 314.21,399.70 314.21,416.20 S 308.39,418.72 303.14,418.72 S 301.59,444.09 300.00,450.00 S 300.35,481.35 305.60,481.35 S 312.71,467.65 312.71,484.15 S 310.85,492.42 305.60,492.42 S 302.13,520.81 300.00,525.00 S 298.32,556.62 303.57,556.62 S 315.76,546.65 315.76,563.15 S 308.82,567.71 303.57,567.71 S 301.53,592.96 300.00,600.00 "></path><path stroke="#ff0000" fill="transparent" d="M 375,0 S 378.25,32.13 373.00,32.13 S 361.79,20.23 361.79,36.73 S 367.75,43.74 373.00,43.74 S 376.85,68.89 375.00,75.00 S 373.73,106.91 378.98,106.91 S 393.12,99.68 393.12,116.18 S 384.23,118.04 378.98,118.04 S 377.04,144.92 375.00,150.00 S 377.56,182.02 372.31,182.02 S 362.11,172.34 362.11,188.84 S 367.06,192.40 372.31,192.40 S 376.91,220.33 375.00,225.00 S 374.71,256.76 379.96,256.76 S 390.82,249.55 390.82,266.05 S 385.21,268.57 379.96,268.57 S 376.70,292.83 375.00,300.00 S 372.35,331.83 377.60,331.83 S 390.26,324.42 390.26,340.92 S 382.85,343.60 377.60,343.60 S 376.51,370.37 375.00,375.00 S 372.60,406.64 377.85,406.64 S 386.68,393.26 386.68,409.76 S 383.10,417.65 377.85,417.65 S 377.16,445.45 375.00,450.00 S 377.32,481.76 372.07,481.76 S 361.96,469.50 361.96,486.00 S 366.82,492.89 372.07,492.89 S 376.93,520.48 375.00,525.00 S 372.30,556.94 377.55,556.94 S 388.38,543.48 388.38,559.98 S 382.80,568.54 377.55,568.54 S 377.40,592.79 375.00,600.00 "></path><path stroke="#ff0000" fill="transparent" d="M 450,0 S 448.50,32.36 453.75,32.36 S 467.85,21.91 467.85,38.41 S 459.00,42.40 453.75,42.40 S 451.92,69.01 450.00,75.00 S 447.08,106.16 452.33,106.16 S 463.30,98.38 463.30,114.88 S 457.58,118.64 452.33,118.64 S 451.73,142.54 450.00,150.00 S 451.73,182.41 446.48,182.41 S 438.13,169.60 438.13,186.10 S 441.23,193.55 446.48,193.55 S 451.55,220.57 450.00,225.00 S 447.98,257.04 453.23,257.04 S 467.54,249.42 467.54,265.92 S 458.48,267.83 453.23,267.83 S 452.91,295.48 450.00,300.00 S 450.71,331.85 445.46,331.85 S 437.60,324.38 437.60,340.88 S 440.21,343.50 445.46,343.50 S 452.99,369.36 450.00,375.00 S 448.01,406.72 453.26,406.72 S 468.63,396.74 468.63,413.24 S 458.51,418.10 453.26,418.10 S 452.65,445.22 450.00,450.00 S 450.85,481.76 445.60,481.76 S 437.59,470.55 437.59,487.05 S 440.35,493.26 445.60,493.26 S 451.60,520.93 450.00,525.00 S 449.67,557.45 444.42,557.45 S 433.75,544.71 433.75,561.21 S 439.17,568.01 444.42,568.01 S 451.70,595.49 450.00,600.00 "></path><path stroke="#ff0000" fill="transparent" d="M 525,0 S 524.90,31.42 519.65,31.42 S 506.33,17.64 506.33,34.14 S 514.40,42.81 519.65,42.81 S 527.26,68.07 525.00,75.00 S 522.35,107.27 527.60,107.27 S 538.73,92.26 538.73,108.76 S 532.85,117.40 527.60,117.40 S 526.93,144.48 525.00,150.00 S 525.94,182.11 520.69,182.11 S 513.41,167.79 513.41,184.29 S 515.44,193.63 520.69,193.63 S 526.76,218.31 525.00,225.00 S 526.76,257.32 521.51,257.32 S 512.61,242.99 512.61,259.49 S 516.26,267.90 521.51,267.90 S 527.20,293.33 525.00,300.00 S 528.35,331.22 523.10,331.22 S 510.95,319.61 510.95,336.11 S 517.85,343.54 523.10,343.54 S 527.20,368.78 525.00,375.00 S 526.81,406.90 521.56,406.90 S 509.53,397.27 509.53,413.77 S 516.31,418.76 521.56,418.76 S 527.73,443.67 525.00,450.00 S 528.16,481.69 522.91,481.69 S 513.23,473.97 513.23,490.47 S 517.66,493.78 522.91,493.78 S 527.30,519.20 525.00,525.00 S 522.28,556.39 527.53,556.39 S 542.96,548.49 542.96,564.99 S 532.78,568.26 527.53,568.26 S 527.33,594.47 525.00,600.00 "></path><path stroke="#ff0000" fill="transparent" d="M 0,75 S 31.22,76.16 31.22,70.91 S 19.54,61.50 36.04,61.50 S 37.69,70.91 42.94,70.91 S 60.60,69.04 75.00,75.00 S 106.89,74.52 106.89,79.77 S 95.71,93.30 112.21,93.30 S 123.19,79.77 117.94,79.77 S 135.72,68.00 150.00,75.00 S 182.57,77.02 182.57,71.77 S 173.20,62.25 189.70,62.25 S 187.48,71.77 192.73,71.77 S 212.94,70.98 225.00,75.00 S 256.16,76.26 256.16,71.01 S 242.60,62.20 259.10,62.20 S 262.37,71.01 267.62,71.01 S 290.48,70.31 300.00,75.00 S 331.49,73.18 331.49,78.43 S 319.95,91.15 336.45,91.15 S 349.00,78.43 343.75,78.43 S 365.98,69.88 375.00,75.00 S 407.13,74.98 407.13,80.23 S 398.29,88.67 414.79,88.67 S 423.14,80.23 417.89,80.23 S 435.22,69.82 450.00,75.00 S 482.27,76.76 482.27,71.51 S 471.65,59.69 488.15,59.69 S 488.04,71.51 493.29,71.51 S 511.96,67.53 525.00,75.00 S 557.00,74.87 557.00,69.62 S 548.60,57.72 565.10,57.72 S 562.72,69.62 567.97,69.62 S 586.41,71.18 600.00,75.00 "></path><path stroke="#ff0000" fill="transparent" d="M 0,150 S 31.68,153.24 31.68,147.99 S 21.51,134.03 38.01,134.03 S 38.19,147.99 43.44,147.99 S 61.76,143.86 75.00,150.00 S 106.29,148.60 106.29,153.85 S 93.60,165.46 110.10,165.46 S 123.48,153.85 118.23,153.85 S 138.51,145.70 150.00,150.00 S 181.62,152.36 181.62,147.11 S 170.77,132.14 187.27,132.14 S 188.51,147.11 193.76,147.11 S 215.30,145.28 225.00,150.00 S 256.37,149.80 256.37,144.55 S 242.54,132.55 259.04,132.55 S 262.89,144.55 268.14,144.55 S 288.26,143.18 300.00,150.00 S 331.65,149.10 331.65,154.35 S 321.53,166.03 338.03,166.03 S 347.63,154.35 342.38,154.35 S 366.37,144.81 375.00,150.00 S 406.49,151.08 406.49,145.83 S 394.71,138.25 411.21,138.25 S 413.58,145.83 418.83,145.83 S 437.92,146.20 450.00,150.00 S 481.32,151.23 481.32,145.98 S 472.93,138.20 489.43,138.20 S 487.27,145.98 492.52,145.98 S 515.52,143.10 525.00,150.00 S 556.85,149.64 556.85,144.39 S 544.85,138.48 561.35,138.48 S 562.50,144.39 567.75,144.39 S 588.96,142.79 600.00,150.00 "></path><path stroke="#ff0000" fill="transparent" d="M 0,225 S 31.29,223.22 31.29,228.47 S 22.29,238.08 38.79,238.08 S 48.25,228.47 43.00,228.47 S 61.11,220.47 75.00,225.00 S 106.14,225.94 106.14,220.69 S 93.43,213.61 109.93,213.61 S 112.91,220.69 118.16,220.69 S 139.91,220.32 150.00,225.00 S 181.91,223.53 181.91,228.78 S 169.86,237.84 186.36,237.84 S 198.99,228.78 193.74,228.78 S 215.23,221.17 225.00,225.00 S 256.81,221.83 256.81,227.08 S 246.86,240.96 263.36,240.96 S 272.76,227.08 267.51,227.08 S 288.31,221.23 300.00,225.00 S 331.80,224.76 331.80,219.51 S 318.02,213.48 334.52,213.48 S 337.44,219.51 342.69,219.51 S 366.24,217.93 375.00,225.00 S 406.38,226.11 406.38,220.86 S 395.03,213.20 411.53,213.20 S 412.80,220.86 418.05,220.86 S 436.99,219.50 450.00,225.00 S 481.86,227.91 481.86,222.66 S 470.95,213.74 487.45,213.74 S 487.37,222.66 492.62,222.66 S 510.59,217.85 525.00,225.00 S 556.92,227.33 556.92,222.08 S 544.05,210.32 560.55,210.32 S 562.91,222.08 568.16,222.08 S 586.22,218.53 600.00,225.00 "></path><path stroke="#ff0000" fill="transparent" d="M 0,300 S 32.52,298.42 32.52,303.67 S 21.65,313.71 38.15,313.71 S 48.69,303.67 43.44,303.67 S 60.23,295.79 75.00,300.00 S 107.14,301.56 107.14,296.31 S 94.03,283.27 110.53,283.27 S 112.63,296.31 117.88,296.31 S 138.55,295.85 150.00,300.00 S 181.98,299.99 181.98,294.74 S 173.19,288.29 189.69,288.29 S 187.80,294.74 193.05,294.74 S 211.78,292.74 225.00,300.00 S 257.09,301.45 257.09,296.20 S 243.99,283.61 260.49,283.61 S 262.22,296.20 267.47,296.20 S 289.61,292.97 300.00,300.00 S 331.45,302.26 331.45,297.01 S 321.99,284.14 338.49,284.14 S 337.20,297.01 342.45,297.01 S 361.36,295.74 375.00,300.00 S 406.19,300.07 406.19,294.82 S 395.70,286.39 412.20,286.39 S 413.27,294.82 418.52,294.82 S 442.42,294.77 450.00,300.00 S 482.46,299.33 482.46,304.58 S 472.89,317.47 489.39,317.47 S 498.65,304.58 493.40,304.58 S 516.92,292.96 525.00,300.00 S 557.24,296.64 557.24,301.89 S 546.33,314.87 562.83,314.87 S 573.19,301.89 567.94,301.89 S 588.19,293.93 600.00,300.00 "></path><path stroke="#ff0000" fill="transparent" d="M 0,375 S 32.00,374.62 32.00,379.87 S 22.41,391.91 38.91,391.91 S 47.99,379.87 42.74,379.87 S 66.34,369.53 75.00,375.00 S 107.16,375.11 107.16,380.36 S 99.72,389.13 116.22,389.13 S 123.90,380.36 118.65,380.36 S 140.56,370.95 150.00,375.00 S 181.60,373.84 181.60,379.09 S 173.97,387.94 190.47,387.94 S 198.54,379.09 193.29,379.09 S 213.28,368.20 225.00,375.00 S 256.98,375.09 256.98,369.84 S 248.10,363.01 264.60,363.01 S 262.44,369.84 267.69,369.84 S 288.74,369.77 300.00,375.00 S 331.95,375.03 331.95,369.78 S 321.66,356.96 338.16,356.96 S 338.53,369.78 343.78,369.78 S 367.45,368.70 375.00,375.00 S 407.61,374.98 407.61,369.73 S 397.13,359.31 413.63,359.31 S 412.69,369.73 417.94,369.73 S 441.69,368.66 450.00,375.00 S 482.29,376.64 482.29,371.39 S 470.82,356.42 487.32,356.42 S 487.91,371.39 493.16,371.39 S 510.82,369.27 525.00,375.00 S 556.92,377.09 556.92,371.84 S 545.70,360.14 562.20,360.14 S 563.31,371.84 568.56,371.84 S 589.10,367.84 600.00,375.00 "></path><path stroke="#ff0000" fill="transparent" d="M 0,450 S 31.63,447.40 31.63,452.65 S 17.68,462.94 34.18,462.94 S 48.03,452.65 42.78,452.65 S 60.50,445.81 75.00,450.00 S 106.14,451.93 106.14,446.68 S 93.70,435.27 110.20,435.27 S 112.31,446.68 117.56,446.68 S 141.53,444.81 150.00,450.00 S 182.21,450.26 182.21,445.01 S 172.99,433.77 189.49,433.77 S 187.93,445.01 193.18,445.01 S 214.24,442.80 225.00,450.00 S 257.08,448.62 257.08,453.87 S 243.31,466.87 259.81,466.87 S 272.92,453.87 267.67,453.87 S 289.39,443.40 300.00,450.00 S 331.39,447.57 331.39,452.82 S 319.32,465.10 335.82,465.10 S 348.89,452.82 343.64,452.82 S 361.33,445.11 375.00,450.00 S 407.46,452.80 407.46,447.55 S 393.91,431.28 410.41,431.28 S 413.10,447.55 418.35,447.55 S 437.14,443.23 450.00,450.00 S 482.08,449.80 482.08,444.55 S 467.49,432.45 483.99,432.45 S 488.05,444.55 493.30,444.55 S 515.68,445.56 525.00,450.00 S 556.38,450.16 556.38,444.91 S 546.71,433.01 563.21,433.01 S 562.84,444.91 568.09,444.91 S 591.75,444.31 600.00,450.00 "></path><path stroke="#ff0000" fill="transparent" d="M 0,525 S 32.48,525.74 32.48,520.49 S 21.66,510.70 38.16,510.70 S 37.70,520.49 42.95,520.49 S 63.03,518.00 75.00,525.00 S 106.47,524.21 106.47,529.46 S 99.53,539.32 116.03,539.32 S 122.81,529.46 117.56,529.46 S 140.16,518.15 150.00,525.00 S 182.49,525.05 182.49,530.30 S 168.80,543.11 185.30,543.11 S 197.68,530.30 192.43,530.30 S 215.65,519.95 225.00,525.00 S 256.45,524.49 256.45,529.74 S 246.02,540.20 262.52,540.20 S 273.00,529.74 267.75,529.74 S 287.26,517.74 300.00,525.00 S 332.35,526.77 332.35,521.52 S 324.22,511.58 340.72,511.58 S 337.33,521.52 342.58,521.52 S 366.10,518.00 375.00,525.00 S 406.72,524.14 406.72,529.39 S 393.50,539.42 410.00,539.42 S 422.64,529.39 417.39,529.39 S 436.86,517.81 450.00,525.00 S 481.21,523.50 481.21,528.75 S 470.33,537.29 486.83,537.29 S 498.71,528.75 493.46,528.75 S 510.10,519.52 525.00,525.00 S 556.67,527.16 556.67,521.91 S 546.48,507.73 562.98,507.73 S 563.46,521.91 568.71,521.91 S 590.32,517.69 600.00,525.00 "></path></svg>